
        <svg xmlns="http://www.w3.org/2000/svg" xmlns:xlink="http://www.w3.org/1999/xlink" version="1.1" width="3162.281780181952" 
        height="1114.8361179043836" viewBox="0 0 3162.281780181952 1114.8361179043836">
			
			<g transform="scale(8.114089009097615) translate(10, 10)">
				<defs id="SvgjsDefs6081"></defs><g id="SvgjsG6082" featureKey="QMusi1-0" transform="matrix(2.4766899161270133,0,0,2.4766899161270133,-23.280879542900575,-3.2196997253117927)" fill="#07689f"><g xmlns="http://www.w3.org/2000/svg"><path d="M38.5,24.7c1.4-2.4,2.1-5,2.1-7.8c0-8.6-7-15.6-15.6-15.6c-5.6,0-10.7,2.9-13.5,7.8c-2.8,4.9-2.8,10.7,0,15.7   c0,0.1,3.7,5.3,5.4,8.8c0.5,1,0.7,2,0.7,3.1c0,0,0,0,0,0c0,0,0,0,0,0v4.5c0,2,1.5,3.6,3.5,3.7c0,0,0,0,0,0c0,2.1,1.7,3.8,3.8,3.8   s3.8-1.7,3.8-3.8c0,0,0,0,0,0c2-0.1,3.5-1.7,3.5-3.7v-4.5c0,0,0,0,0-0.1c0-1,0.2-2,0.7-2.9C34.7,30.2,38.4,24.8,38.5,24.7z    M26.8,44.9c0,1-0.8,1.8-1.8,1.8s-1.8-0.8-1.8-1.8c0,0,0,0,0,0L26.8,44.9C26.8,44.8,26.8,44.9,26.8,44.9z M30.3,41.1   c0,1-0.8,1.7-1.7,1.7h-7.2c-1,0-1.7-0.8-1.7-1.7v-3.5h10.6V41.1z M19,20.7c-0.3-0.5-0.6-1.1-0.7-1.7c-0.1-0.3-0.5-0.6-0.7-0.7   L16.2,18v-1.5l1.3-0.3c0.4-0.1,0.7-0.4,0.7-0.7c0.2-0.6,0.4-1.2,0.7-1.7c0.2-0.3,0.1-0.8,0-1l-0.7-1.1l1.1-1.1l1.1,0.7c0,0,0,0,0,0   c0.3,0.2,0.7,0.2,1,0c0.5-0.3,1.1-0.6,1.7-0.7c0,0,0,0,0,0c0.4-0.1,0.6-0.4,0.7-0.7l0.3-1.3h1.5L26,9.7c0.1,0.3,0.4,0.7,0.7,0.7   c0.6,0.2,1.2,0.4,1.7,0.7c0.3,0.2,0.7,0.2,1,0c0,0,0,0,0,0l1.1-0.7l1.1,1.1L31,12.6c-0.2,0.3-0.2,0.8,0,1c0.3,0.5,0.6,1.1,0.7,1.7   c0.1,0.4,0.4,0.6,0.7,0.7l1.3,0.3v1.5l-1.3,0.3c-0.9,0.2-0.6,1-1.5,2.5c-0.2,0.3-0.1,0.8,0,1l0.7,1.1l-1.1,1.1l-1.1-0.7   c-0.3-0.2-0.8-0.2-1,0c-0.5,0.3-1.1,0.6-1.7,0.7c-0.3,0.1-0.6,0.4-0.7,0.7L25.8,26h-1.5L24,24.7c-0.1-0.3-0.4-0.7-0.7-0.7   c-0.6-0.2-1.2-0.4-1.7-0.7c-0.3-0.2-0.8-0.1-1,0L19.4,24l-1.1-1.1l0.7-1.1C19.1,21.5,19.1,21,19,20.7z M31.2,32.8   c-0.4,0.9-0.7,1.9-0.8,2.9H26V28h0.6c0.5,0,0.9-0.3,1-0.8l0.4-1.5c0.4-0.1,0.7-0.3,1.1-0.5l1.3,0.8c0.2,0.1,0.3,0.1,0.5,0.1   c0.3,0,0.5-0.1,0.7-0.3l2.2-2.2c0.3-0.3,0.4-0.8,0.1-1.2l-0.8-1.3c0.2-0.4,0.3-0.7,0.5-1.1l1.5-0.3c0.5-0.1,0.8-0.5,0.8-1v-3.1   c0-0.5-0.3-0.9-0.8-1l-1.5-0.4c-0.1-0.4-0.3-0.7-0.5-1.1l0.8-1.3c0.2-0.4,0.2-0.9-0.1-1.2l-2.2-2.2c-0.3-0.3-0.8-0.4-1.2-0.1   l-1.3,0.8c-0.4-0.2-0.7-0.3-1.1-0.5l-0.3-1.5c-0.1-0.5-0.5-0.8-1-0.8h-3.1c-0.5,0-0.9,0.3-1,0.8l-0.4,1.5C21.7,8.8,21.3,9,21,9.1   l-1.3-0.8c-0.4-0.2-0.9-0.2-1.2,0.1l-2.2,2.2c-0.3,0.3-0.4,0.8-0.1,1.2l0.8,1.3c-0.2,0.4-0.3,0.7-0.5,1.1L15,14.7   c-0.5,0.1-0.8,0.5-0.8,1v3.1c0,0.5,0.3,0.9,0.8,1l1.5,0.4c0.1,0.4,0.3,0.7,0.5,1.1l-0.8,1.3c-0.2,0.4-0.2,0.9,0.1,1.2l2.2,2.2   c0.2,0.2,0.4,0.3,0.7,0.3c0.2,0,0.4,0,0.5-0.1l1.3-0.8c0.4,0.2,0.7,0.3,1.1,0.5l0.4,1.5c0.1,0.5,0.5,0.8,1,0.8H24v7.7h-4.4   c-0.1-1-0.4-2.1-0.9-3c-1.8-3.6-5.4-8.8-5.5-9c-2.5-4.3-2.5-9.3,0-13.6c2.5-4.3,6.9-6.8,11.8-6.8c7.5,0,13.6,6.1,13.6,13.6   c0,2.4-0.6,4.6-1.8,6.7C36.7,23.8,33,29.2,31.2,32.8z"></path><path d="M25,21.5c2.4,0,4.3-1.9,4.3-4.3s-1.9-4.3-4.3-4.3s-4.3,1.9-4.3,4.3S22.6,21.5,25,21.5z M25,14.9c1.3,0,2.3,1,2.3,2.3   s-1,2.3-2.3,2.3s-2.3-1-2.3-2.3S23.7,14.9,25,14.9z"></path></g></g><g id="SvgjsG6083" featureKey="UyNsn2-0" transform="matrix(5.648866603621827,0,0,5.648866603621827,94.96640861528583,-14.198538563208615)" fill="#07689f"><path d="M3.78 8.54 l-3.42 0 l0 -2.84 l10.3 0 l-0.46 1.4 l-0.46 1.44 l-2.68 0 l0.06 0.56 l0 10.9 l-3.34 0 l0 -11.46 z M14.02 9.92 c0.16 -0.10666 0.38332 -0.21 0.66998 -0.31 s0.61 -0.15 0.97 -0.15 c0.30666 0 0.55666 0.01334 0.75 0.04 s0.29 0.03332 0.29 0.01998 l0 2.66 c-0.30666 -0.02666 -0.60666 -0.03332 -0.9 -0.01998 c-0.25334 0.02666 -0.51668 0.07 -0.79002 0.13 s-0.52334 0.17 -0.75 0.33 c-0.26666 0.18666 -0.45666 0.44 -0.57 0.76 s-0.17 0.76 -0.17 1.32 l0 5.32 l-3 0 l0 -7.94 l-1.62 0 l1.28 -2.54 l3.34 0 l0 0.78 c0.06666 -0.05334 0.12666 -0.10668 0.18 -0.16002 c0.05334 -0.04 0.10668 -0.08334 0.16002 -0.13 s0.10668 -0.08332 0.16002 -0.10998 z M23.28 15.42 c-0.13334 -0.02666 -0.2733 -0.04338 -0.41996 -0.050038 s-0.27332 -0.01 -0.37998 -0.01 c-0.56 0 -1.0133 0.08666 -1.36 0.26 s-0.52 0.47334 -0.52 0.9 c0 0.26666 0.06334 0.47666 0.19 0.63 s0.28332 0.26668 0.46998 0.34002 s0.38332 0.11668 0.58998 0.13002 s0.38332 0.02 0.52998 0.02 c0.26666 0 0.56666 -0.03334 0.9 -0.1 l0 -2.12 z M22.240000000000002 13.219999999999999 c0.10666 0 0.24996 0.0033594 0.42996 0.01002 s0.38334 0.01666 0.61 0.03 c-0.01334 -0.52 -0.19668 -0.85666 -0.55002 -1.01 s-0.81 -0.23 -1.37 -0.23 c-0.30666 0 -0.66 0.03666 -1.06 0.11 s-0.83334 0.18334 -1.3 0.33 l-0.32 -1.1 c-0.04 -0.14666 -0.09666 -0.36 -0.17 -0.64 s-0.12334 -0.5 -0.15 -0.66 c0.66666 -0.22666 1.2967 -0.39 1.89 -0.49 s1.13 -0.15 1.61 -0.15 c1.4133 0 2.5066 0.33666 3.28 1.01 s1.16 1.75 1.16 3.23 l0 5.86 c-0.52 0.14666 -1.12 0.29 -1.8 0.43 s-1.4133 0.21 -2.2 0.21 c-0.69334 0 -1.3233 -0.06 -1.89 -0.18 s-1.0533 -0.32 -1.46 -0.6 s-0.72 -0.64666 -0.94 -1.1 s-0.33 -1.0067 -0.33 -1.66 s0.13666 -1.2 0.41 -1.64 s0.62668 -0.79 1.06 -1.05 s0.92 -0.44334 1.46 -0.55 s1.0833 -0.16 1.63 -0.16 z M28.44 12.04 l-1.68 0 l1.32 -2.48 l2.9 0 l0.26 1.12 c0.33334 -0.36 0.73 -0.66 1.19 -0.9 s0.99 -0.36 1.59 -0.36 c1.2133 0 2.1134 0.32334 2.7 0.97 s0.88 1.67 0.88 3.07 l0 6.54 l-3.04 0 l0 -6.02 c0 -0.61334 -0.15 -1.0533 -0.45 -1.32 s-0.68334 -0.4 -1.15 -0.4 c-0.38666 0 -0.73332 0.13 -1.04 0.39 s-0.46 0.69 -0.46 1.29 l0 6.06 l-3.02 0 l0 -7.96 z M44.22 9.44 c0.69334 0 1.3166 0.096622 1.87 0.28996 s1.0167 0.50668 1.39 0.94002 s0.66 0.99 0.86 1.67 s0.3 1.5 0.3 2.46 l0 0.31 l-0.04 0.63 l-5.6 0 l-0.42 -0.06 c0.01334 0.38666 0.05668 0.69666 0.13002 0.93 s0.18 0.41668 0.32 0.55002 s0.31 0.22668 0.51 0.28002 s0.42666 0.08668 0.68 0.10002 c0.41334 0.02666 0.77 -0.03334 1.07 -0.18 s0.58334 -0.44666 0.85 -0.9 c0.41334 0.13334 0.79334 0.26 1.14 0.38 c0.29334 0.10666 0.56 0.2 0.8 0.28 s0.36 0.11334 0.36 0.1 c-0.48 1 -1.0633 1.73 -1.75 2.19 s-1.51 0.69 -2.47 0.69 c-0.70666 0 -1.3467 -0.09334 -1.92 -0.28 s-1.06 -0.49 -1.46 -0.91 s-0.71 -0.96666 -0.93 -1.64 s-0.33 -1.4967 -0.33 -2.47 c0 -0.94666 0.11 -1.7567 0.33 -2.43 s0.53 -1.2267 0.93 -1.66 s0.88666 -0.75334 1.46 -0.96 s1.2133 -0.31 1.92 -0.31 z M45.32 13.440000000000001 l0.30004 0.04 c-0.02666 -0.46666 -0.15 -0.83 -0.37 -1.09 s-0.56334 -0.39 -1.03 -0.39 c-0.53334 0 -0.91668 0.13 -1.15 0.39 s-0.37668 0.62334 -0.43002 1.09 c0.06666 -0.01334 0.12666 -0.02334 0.18 -0.03 s0.11334 -0.01 0.18 -0.01 l2.32 0 z"></path></g>
			</g>
		</svg>
	
